<svg xmlns="http://www.w3.org/2000/svg" viewBox="0 0 400 600" width="400" height="600">
  <!-- Background -->
  <rect width="400" height="600" fill="#1a1a2e" rx="8"/>

  <!-- Header -->
  <rect x="0" y="0" width="400" height="56" fill="#16213e" rx="8"/>
  <text x="16" y="36" fill="#e0e0e0" font-size="20" font-family="sans-serif">&lt;</text>
  <text x="46" y="36" fill="#fff" font-size="16" font-weight="bold" font-family="sans-serif">天盃龍展開</text>
  <!-- Edit button -->
  <rect x="320" y="12" width="60" height="32" fill="#0f3460" rx="6"/>
  <text x="350" y="33" fill="#e0e0e0" font-size="12" text-anchor="middle" font-family="sans-serif">編集</text>

  <!-- Starting Cards -->
  <text x="16" y="80" fill="#aaa" font-size="12" font-weight="bold" font-family="sans-serif">初動札</text>
  <rect x="16" y="88" width="368" height="56" fill="#1a1a3e" rx="8"/>
  <rect x="28" y="96" width="40" height="40" fill="#4a4a6a" rx="4"/>
  <rect x="76" y="96" width="40" height="40" fill="#4a4a6a" rx="4"/>
  <rect x="124" y="96" width="40" height="40" fill="#4a4a6a" rx="4"/>

  <!-- Step Card 1: Text left, Board right -->
  <rect x="16" y="160" width="368" height="130" fill="#1a1a3e" stroke="#333" stroke-width="1" rx="8"/>
  <!-- Left: Text -->
  <text x="28" y="184" fill="#e94560" font-size="12" font-weight="bold" font-family="sans-serif">Step 1</text>
  <text x="28" y="204" fill="#ccc" font-size="11" font-family="sans-serif">天盃龍パイドラを</text>
  <text x="28" y="220" fill="#ccc" font-size="11" font-family="sans-serif">通常召喚</text>
  <text x="28" y="240" fill="#ccc" font-size="11" font-family="sans-serif">効果発動、デッキ</text>
  <text x="28" y="256" fill="#ccc" font-size="11" font-family="sans-serif">から天盃龍...</text>
  <text x="28" y="276" fill="#ccc" font-size="11" font-family="sans-serif">サーチ</text>

  <!-- Right: Mini Board (5x5, cell=20px) -->
  <!-- Row 0 -->
  <rect x="240" y="170" width="20" height="20" fill="#2a2a4a" stroke="#444" stroke-width="0.5" rx="1"/>
  <rect x="262" y="170" width="20" height="20" fill="#2a2a4a" stroke="#444" stroke-width="0.5" rx="1"/>
  <rect x="284" y="170" width="20" height="20" fill="#2a2a4a" stroke="#444" stroke-width="0.5" rx="1"/>
  <rect x="306" y="170" width="20" height="20" fill="#2a2a4a" stroke="#444" stroke-width="0.5" rx="1"/>
  <rect x="328" y="170" width="20" height="20" fill="#2a2a4a" stroke="#444" stroke-width="0.5" rx="1"/>
  <!-- Row 1 -->
  <rect x="240" y="192" width="20" height="20" fill="#2a2a4a" stroke="#444" stroke-width="0.5" rx="1"/>
  <rect x="262" y="192" width="20" height="20" fill="#2a2a4a" stroke="#444" stroke-width="0.5" rx="1"/>
  <rect x="284" y="192" width="20" height="20" fill="#4a4a6a" stroke="#444" stroke-width="0.5" rx="1"/>
  <rect x="306" y="192" width="20" height="20" fill="#2a2a4a" stroke="#444" stroke-width="0.5" rx="1"/>
  <rect x="328" y="192" width="20" height="20" fill="#2a2a4a" stroke="#444" stroke-width="0.5" rx="1"/>
  <!-- Row 2: EX Zone (col 1, 3 only) -->
  <rect x="262" y="214" width="20" height="20" fill="#2a2a4a" stroke="#e94560" stroke-width="0.5" stroke-dasharray="2,1" rx="1"/>
  <rect x="306" y="214" width="20" height="20" fill="#2a2a4a" stroke="#e94560" stroke-width="0.5" stroke-dasharray="2,1" rx="1"/>
  <!-- Row 3 -->
  <rect x="240" y="236" width="20" height="20" fill="#2a2a4a" stroke="#444" stroke-width="0.5" rx="1"/>
  <rect x="262" y="236" width="20" height="20" fill="#2a2a4a" stroke="#444" stroke-width="0.5" rx="1"/>
  <rect x="284" y="236" width="20" height="20" fill="#2a2a4a" stroke="#444" stroke-width="0.5" rx="1"/>
  <rect x="306" y="236" width="20" height="20" fill="#2a2a4a" stroke="#444" stroke-width="0.5" rx="1"/>
  <rect x="328" y="236" width="20" height="20" fill="#2a2a4a" stroke="#444" stroke-width="0.5" rx="1"/>
  <!-- Row 4 -->
  <rect x="240" y="258" width="20" height="20" fill="#2a2a4a" stroke="#444" stroke-width="0.5" rx="1"/>
  <rect x="262" y="258" width="20" height="20" fill="#2a2a4a" stroke="#444" stroke-width="0.5" rx="1"/>
  <rect x="284" y="258" width="20" height="20" fill="#2a2a4a" stroke="#444" stroke-width="0.5" rx="1"/>
  <rect x="306" y="258" width="20" height="20" fill="#2a2a4a" stroke="#444" stroke-width="0.5" rx="1"/>
  <rect x="328" y="258" width="20" height="20" fill="#2a2a4a" stroke="#444" stroke-width="0.5" rx="1"/>

  <!-- Step Card 2: Text left, Board right -->
  <rect x="16" y="306" width="368" height="130" fill="#1a1a3e" stroke="#333" stroke-width="1" rx="8"/>
  <!-- Left: Text -->
  <text x="28" y="330" fill="#e94560" font-size="12" font-weight="bold" font-family="sans-serif">Step 2</text>
  <text x="28" y="350" fill="#ccc" font-size="11" font-family="sans-serif">盃満ちる燦幻荘を</text>
  <text x="28" y="366" fill="#ccc" font-size="11" font-family="sans-serif">発動</text>
  <text x="28" y="386" fill="#ccc" font-size="11" font-family="sans-serif">チェーン1で</text>
  <text x="28" y="402" fill="#ccc" font-size="11" font-family="sans-serif">効果処理...</text>

  <!-- Right: Mini Board -->
  <!-- Row 0 -->
  <rect x="240" y="316" width="20" height="20" fill="#2a2a4a" stroke="#444" stroke-width="0.5" rx="1"/>
  <rect x="262" y="316" width="20" height="20" fill="#2a2a4a" stroke="#444" stroke-width="0.5" rx="1"/>
  <rect x="284" y="316" width="20" height="20" fill="#2a2a4a" stroke="#444" stroke-width="0.5" rx="1"/>
  <rect x="306" y="316" width="20" height="20" fill="#2a2a4a" stroke="#444" stroke-width="0.5" rx="1"/>
  <rect x="328" y="316" width="20" height="20" fill="#2a2a4a" stroke="#444" stroke-width="0.5" rx="1"/>
  <!-- Row 1 -->
  <rect x="240" y="338" width="20" height="20" fill="#2a2a4a" stroke="#444" stroke-width="0.5" rx="1"/>
  <rect x="262" y="338" width="20" height="20" fill="#2a2a4a" stroke="#444" stroke-width="0.5" rx="1"/>
  <rect x="284" y="338" width="20" height="20" fill="#2a2a4a" stroke="#444" stroke-width="0.5" rx="1"/>
  <rect x="306" y="338" width="20" height="20" fill="#2a2a4a" stroke="#444" stroke-width="0.5" rx="1"/>
  <rect x="328" y="338" width="20" height="20" fill="#4a4a6a" stroke="#444" stroke-width="0.5" rx="1"/>
  <!-- Chain badge -->
  <circle cx="338" cy="348" r="7" fill="#e94560"/>
  <text x="338" y="351" fill="#fff" font-size="7" text-anchor="middle" font-family="sans-serif">1</text>
  <!-- Row 2: EX Zone -->
  <rect x="262" y="360" width="20" height="20" fill="#2a2a4a" stroke="#e94560" stroke-width="0.5" stroke-dasharray="2,1" rx="1"/>
  <rect x="306" y="360" width="20" height="20" fill="#2a2a4a" stroke="#e94560" stroke-width="0.5" stroke-dasharray="2,1" rx="1"/>
  <!-- Row 3 -->
  <rect x="240" y="382" width="20" height="20" fill="#4a4a6a" stroke="#444" stroke-width="0.5" rx="1"/>
  <rect x="262" y="382" width="20" height="20" fill="#2a2a4a" stroke="#444" stroke-width="0.5" rx="1"/>
  <rect x="284" y="382" width="20" height="20" fill="#2a2a4a" stroke="#444" stroke-width="0.5" rx="1"/>
  <rect x="306" y="382" width="20" height="20" fill="#2a2a4a" stroke="#444" stroke-width="0.5" rx="1"/>
  <rect x="328" y="382" width="20" height="20" fill="#2a2a4a" stroke="#444" stroke-width="0.5" rx="1"/>
  <!-- Row 4 -->
  <rect x="240" y="404" width="20" height="20" fill="#2a2a4a" stroke="#444" stroke-width="0.5" rx="1"/>
  <rect x="262" y="404" width="20" height="20" fill="#4a4a6a" stroke="#444" stroke-width="0.5" rx="1"/>
  <rect x="284" y="404" width="20" height="20" fill="#2a2a4a" stroke="#444" stroke-width="0.5" rx="1"/>
  <rect x="306" y="404" width="20" height="20" fill="#2a2a4a" stroke="#444" stroke-width="0.5" rx="1"/>
  <rect x="328" y="404" width="20" height="20" fill="#2a2a4a" stroke="#444" stroke-width="0.5" rx="1"/>

  <!-- Step Card 3 -->
  <rect x="16" y="452" width="368" height="130" fill="#1a1a3e" stroke="#333" stroke-width="1" rx="8"/>
  <text x="28" y="476" fill="#e94560" font-size="12" font-weight="bold" font-family="sans-serif">Step 3</text>
  <text x="28" y="496" fill="#ccc" font-size="11" font-family="sans-serif">バトルフェイズ</text>
  <text x="28" y="512" fill="#ccc" font-size="11" font-family="sans-serif">天盃龍チュンドラ</text>
  <text x="28" y="528" fill="#ccc" font-size="11" font-family="sans-serif">を特殊召喚...</text>
  <!-- Right: Mini Board (simplified) -->
  <rect x="240" y="462" width="20" height="20" fill="#2a2a4a" stroke="#444" stroke-width="0.5" rx="1"/>
  <rect x="262" y="462" width="20" height="20" fill="#2a2a4a" stroke="#444" stroke-width="0.5" rx="1"/>
  <rect x="284" y="462" width="20" height="20" fill="#2a2a4a" stroke="#444" stroke-width="0.5" rx="1"/>
  <rect x="306" y="462" width="20" height="20" fill="#2a2a4a" stroke="#444" stroke-width="0.5" rx="1"/>
  <rect x="328" y="462" width="20" height="20" fill="#2a2a4a" stroke="#444" stroke-width="0.5" rx="1"/>
  <rect x="240" y="484" width="20" height="20" fill="#2a2a4a" stroke="#444" stroke-width="0.5" rx="1"/>
  <rect x="262" y="484" width="20" height="20" fill="#2a2a4a" stroke="#444" stroke-width="0.5" rx="1"/>
  <rect x="284" y="484" width="20" height="20" fill="#2a2a4a" stroke="#444" stroke-width="0.5" rx="1"/>
  <rect x="306" y="484" width="20" height="20" fill="#2a2a4a" stroke="#444" stroke-width="0.5" rx="1"/>
  <rect x="328" y="484" width="20" height="20" fill="#4a4a6a" stroke="#444" stroke-width="0.5" rx="1"/>
  <rect x="262" y="506" width="20" height="20" fill="#2a2a4a" stroke="#e94560" stroke-width="0.5" stroke-dasharray="2,1" rx="1"/>
  <rect x="306" y="506" width="20" height="20" fill="#2a2a4a" stroke="#e94560" stroke-width="0.5" stroke-dasharray="2,1" rx="1"/>
  <rect x="240" y="528" width="20" height="20" fill="#4a4a6a" stroke="#444" stroke-width="0.5" rx="1"/>
  <rect x="262" y="528" width="20" height="20" fill="#4a4a6a" stroke="#444" stroke-width="0.5" rx="1"/>
  <rect x="284" y="528" width="20" height="20" fill="#2a2a4a" stroke="#444" stroke-width="0.5" rx="1"/>
  <rect x="306" y="528" width="20" height="20" fill="#2a2a4a" stroke="#444" stroke-width="0.5" rx="1"/>
  <rect x="328" y="528" width="20" height="20" fill="#2a2a4a" stroke="#444" stroke-width="0.5" rx="1"/>
  <rect x="240" y="550" width="20" height="20" fill="#2a2a4a" stroke="#444" stroke-width="0.5" rx="1"/>
  <rect x="262" y="550" width="20" height="20" fill="#4a4a6a" stroke="#444" stroke-width="0.5" rx="1"/>
  <rect x="284" y="550" width="20" height="20" fill="#2a2a4a" stroke="#444" stroke-width="0.5" rx="1"/>
  <rect x="306" y="550" width="20" height="20" fill="#2a2a4a" stroke="#444" stroke-width="0.5" rx="1"/>
  <rect x="328" y="550" width="20" height="20" fill="#2a2a4a" stroke="#444" stroke-width="0.5" rx="1"/>

  <!-- Layout guide line (invisible separator) -->
  <line x1="228" y1="160" x2="228" y2="582" stroke="#333" stroke-width="0.5" stroke-dasharray="4,4"/>
</svg>
